<svg width="28" height="29" viewBox="0 0 28 29" fill="none" xmlns="http://www.w3.org/2000/svg">
<g id="live">
<path id="Vector" d="M23.3701 7.49996V20.2604H4.70345V7.49996H23.3701ZM24.5368 5.16663H3.53678C2.89512 5.16663 2.37012 5.69163 2.37012 6.33329V21.427C2.37012 22.0687 2.89512 22.5937 3.53678 22.5937H24.5368C25.1784 22.5937 25.7034 22.0687 25.7034 21.427V6.33329C25.7034 5.69163 25.1784 5.16663 24.5368 5.16663ZM17.115 13.6366L12.74 10.72C12.6955 10.6924 12.6446 10.6765 12.5923 10.674C12.5399 10.6714 12.4878 10.6822 12.4408 10.7054C12.3942 10.7303 12.3553 10.7674 12.3282 10.8127C12.3011 10.858 12.2868 10.9098 12.2868 10.9626V16.796C12.2868 16.8488 12.3011 16.9006 12.3282 16.9459C12.3553 16.9912 12.3942 17.0283 12.4408 17.0532C12.4872 17.0784 12.5396 17.0904 12.5924 17.088C12.6451 17.0855 12.6962 17.0686 12.74 17.0392L17.115 14.1225C17.155 14.0959 17.1877 14.0598 17.2104 14.0175C17.233 13.9752 17.2449 13.9279 17.2449 13.8799C17.2449 13.8319 17.233 13.7846 17.2104 13.7423C17.1877 13.6999 17.155 13.6633 17.115 13.6366ZM18.6667 26.1666H9.33337C9.02395 26.1666 8.7272 26.0437 8.50841 25.8249C8.28962 25.6061 8.1667 25.3094 8.1667 25C8.1667 24.6905 8.28962 24.3938 8.50841 24.175C8.7272 23.9562 9.02395 23.8333 9.33337 23.8333H18.6667C18.9761 23.8333 19.2729 23.9562 19.4917 24.175C19.7105 24.3938 19.8334 24.6905 19.8334 25C19.8334 25.3094 19.7105 25.6061 19.4917 25.8249C19.2729 26.0437 18.9761 26.1666 18.6667 26.1666Z" fill="#ED0E05"/>
</g>
</svg>
