<svg width="25" height="24" viewBox="0 0 25 24" fill="none" xmlns="http://www.w3.org/2000/svg">
<g clip-path="url(#clip0_214_454)">
<path d="M23.3874 1.12537C23.3874 1.12537 15.844 -3.4018e-05 13.799 -3.4018e-05C13.6311 -0.0209574 13.4607 0.00117321 13.3038 0.0642747L0.782898 12.5852C0.600664 12.7704 0.498535 13.0199 0.498535 13.2797C0.498535 13.5396 0.600664 13.789 0.782898 13.9742L10.5192 23.7106C10.6099 23.8026 10.7181 23.8756 10.8373 23.9253C10.9566 23.975 11.0846 24.0004 11.2138 24C11.343 24.0007 11.4711 23.9755 11.5904 23.9258C11.7097 23.8761 11.8178 23.8029 11.9083 23.7106L24.4292 11.1961C24.8151 10.8103 23.3874 1.12537 23.3874 1.12537ZM11.2138 20.7717L3.72824 13.2797L14.4099 2.59804C15.8633 2.6945 18.725 3.05463 21.1109 3.3826C21.4839 6.05141 21.8118 8.76524 21.9019 10.0836L11.2138 20.7717Z" fill="#002E44"/>
<path d="M18.0563 7.87779C18.9442 7.87779 19.664 7.15799 19.664 6.27007C19.664 5.38215 18.9442 4.66235 18.0563 4.66235C17.1684 4.66235 16.4486 5.38215 16.4486 6.27007C16.4486 7.15799 17.1684 7.87779 18.0563 7.87779Z" fill="#002E44"/>
</g>
<defs>
<clipPath id="clip0_214_454">
<rect width="24" height="24" fill="white" transform="translate(0.5)"/>
</clipPath>
</defs>
</svg>
